<mxfile host="app.diagrams.net" modified="2024-01-15T02:22:25.328Z" agent="Mozilla/5.0 (Windows NT 10.0; Win64; x64) AppleWebKit/537.36 (KHTML, like Gecko) Chrome/120.0.0.0 Safari/537.36" etag="ubCFCQHQl-hTSMAHxWme" version="22.1.18" type="device">
  <diagram id="C5RBs43oDa-KdzZeNtuy" name="Page-1">
    <mxGraphModel dx="1467" dy="740" grid="1" gridSize="10" guides="1" tooltips="1" connect="1" arrows="1" fold="1" page="1" pageScale="1" pageWidth="827" pageHeight="1169" math="0" shadow="0">
      <root>
        <mxCell id="WIyWlLk6GJQsqaUBKTNV-0" />
        <mxCell id="WIyWlLk6GJQsqaUBKTNV-1" parent="WIyWlLk6GJQsqaUBKTNV-0" />
        <mxCell id="lHpQ4Gt-UM4nO55dHslV-7" style="edgeStyle=orthogonalEdgeStyle;rounded=0;orthogonalLoop=1;jettySize=auto;html=1;exitX=0.5;exitY=1;exitDx=0;exitDy=0;entryX=0.5;entryY=0;entryDx=0;entryDy=0;" edge="1" parent="WIyWlLk6GJQsqaUBKTNV-1" source="lHpQ4Gt-UM4nO55dHslV-0" target="lHpQ4Gt-UM4nO55dHslV-1">
          <mxGeometry relative="1" as="geometry" />
        </mxCell>
        <mxCell id="lHpQ4Gt-UM4nO55dHslV-0" value="START" style="ellipse;whiteSpace=wrap;html=1;" vertex="1" parent="WIyWlLk6GJQsqaUBKTNV-1">
          <mxGeometry x="330" y="250" width="120" height="80" as="geometry" />
        </mxCell>
        <mxCell id="lHpQ4Gt-UM4nO55dHslV-9" style="edgeStyle=orthogonalEdgeStyle;rounded=0;orthogonalLoop=1;jettySize=auto;html=1;exitX=0.5;exitY=1;exitDx=0;exitDy=0;entryX=0.5;entryY=0;entryDx=0;entryDy=0;" edge="1" parent="WIyWlLk6GJQsqaUBKTNV-1" source="lHpQ4Gt-UM4nO55dHslV-1" target="lHpQ4Gt-UM4nO55dHslV-3">
          <mxGeometry relative="1" as="geometry" />
        </mxCell>
        <mxCell id="lHpQ4Gt-UM4nO55dHslV-1" value="ALARM DI NYALAKAN" style="rounded=1;whiteSpace=wrap;html=1;" vertex="1" parent="WIyWlLk6GJQsqaUBKTNV-1">
          <mxGeometry x="330" y="380" width="120" height="60" as="geometry" />
        </mxCell>
        <mxCell id="lHpQ4Gt-UM4nO55dHslV-11" style="edgeStyle=orthogonalEdgeStyle;rounded=0;orthogonalLoop=1;jettySize=auto;html=1;exitX=0.5;exitY=1;exitDx=0;exitDy=0;entryX=0.5;entryY=0;entryDx=0;entryDy=0;" edge="1" parent="WIyWlLk6GJQsqaUBKTNV-1" source="lHpQ4Gt-UM4nO55dHslV-2" target="lHpQ4Gt-UM4nO55dHslV-4">
          <mxGeometry relative="1" as="geometry" />
        </mxCell>
        <mxCell id="lHpQ4Gt-UM4nO55dHslV-12" style="edgeStyle=orthogonalEdgeStyle;rounded=0;orthogonalLoop=1;jettySize=auto;html=1;exitX=1;exitY=0.5;exitDx=0;exitDy=0;entryX=1;entryY=0.5;entryDx=0;entryDy=0;" edge="1" parent="WIyWlLk6GJQsqaUBKTNV-1" source="lHpQ4Gt-UM4nO55dHslV-2" target="lHpQ4Gt-UM4nO55dHslV-5">
          <mxGeometry relative="1" as="geometry">
            <mxPoint x="250" y="570" as="targetPoint" />
            <Array as="points">
              <mxPoint x="511" y="625" />
              <mxPoint x="511" y="850" />
            </Array>
          </mxGeometry>
        </mxCell>
        <mxCell id="lHpQ4Gt-UM4nO55dHslV-2" value="" style="rhombus;whiteSpace=wrap;html=1;" vertex="1" parent="WIyWlLk6GJQsqaUBKTNV-1">
          <mxGeometry x="350" y="585" width="80" height="80" as="geometry" />
        </mxCell>
        <mxCell id="lHpQ4Gt-UM4nO55dHslV-10" style="edgeStyle=orthogonalEdgeStyle;rounded=0;orthogonalLoop=1;jettySize=auto;html=1;exitX=0.5;exitY=1;exitDx=0;exitDy=0;entryX=0.5;entryY=0;entryDx=0;entryDy=0;" edge="1" parent="WIyWlLk6GJQsqaUBKTNV-1" source="lHpQ4Gt-UM4nO55dHslV-3" target="lHpQ4Gt-UM4nO55dHslV-2">
          <mxGeometry relative="1" as="geometry" />
        </mxCell>
        <mxCell id="lHpQ4Gt-UM4nO55dHslV-3" value="MENDETESI ADANYA GERAKAN&amp;nbsp;" style="rounded=1;whiteSpace=wrap;html=1;" vertex="1" parent="WIyWlLk6GJQsqaUBKTNV-1">
          <mxGeometry x="330" y="480" width="120" height="60" as="geometry" />
        </mxCell>
        <mxCell id="lHpQ4Gt-UM4nO55dHslV-13" style="edgeStyle=orthogonalEdgeStyle;rounded=0;orthogonalLoop=1;jettySize=auto;html=1;exitX=0.5;exitY=1;exitDx=0;exitDy=0;entryX=0.5;entryY=0;entryDx=0;entryDy=0;" edge="1" parent="WIyWlLk6GJQsqaUBKTNV-1" source="lHpQ4Gt-UM4nO55dHslV-4" target="lHpQ4Gt-UM4nO55dHslV-5">
          <mxGeometry relative="1" as="geometry" />
        </mxCell>
        <mxCell id="lHpQ4Gt-UM4nO55dHslV-4" value="ALARM BERBUNYI" style="rounded=1;whiteSpace=wrap;html=1;" vertex="1" parent="WIyWlLk6GJQsqaUBKTNV-1">
          <mxGeometry x="330" y="710" width="120" height="60" as="geometry" />
        </mxCell>
        <mxCell id="lHpQ4Gt-UM4nO55dHslV-19" style="edgeStyle=orthogonalEdgeStyle;rounded=0;orthogonalLoop=1;jettySize=auto;html=1;exitX=0.5;exitY=1;exitDx=0;exitDy=0;entryX=0.5;entryY=0;entryDx=0;entryDy=0;" edge="1" parent="WIyWlLk6GJQsqaUBKTNV-1" source="lHpQ4Gt-UM4nO55dHslV-5" target="lHpQ4Gt-UM4nO55dHslV-18">
          <mxGeometry relative="1" as="geometry" />
        </mxCell>
        <mxCell id="lHpQ4Gt-UM4nO55dHslV-5" value="KIRIM NOTIFIKASI" style="rounded=1;whiteSpace=wrap;html=1;" vertex="1" parent="WIyWlLk6GJQsqaUBKTNV-1">
          <mxGeometry x="330" y="820" width="120" height="60" as="geometry" />
        </mxCell>
        <mxCell id="lHpQ4Gt-UM4nO55dHslV-14" value="YES" style="text;html=1;strokeColor=none;fillColor=none;align=center;verticalAlign=middle;whiteSpace=wrap;rounded=0;" vertex="1" parent="WIyWlLk6GJQsqaUBKTNV-1">
          <mxGeometry x="380" y="670" width="60" height="30" as="geometry" />
        </mxCell>
        <mxCell id="lHpQ4Gt-UM4nO55dHslV-15" value="NO" style="text;html=1;strokeColor=none;fillColor=none;align=center;verticalAlign=middle;whiteSpace=wrap;rounded=0;" vertex="1" parent="WIyWlLk6GJQsqaUBKTNV-1">
          <mxGeometry x="450" y="600" width="60" height="30" as="geometry" />
        </mxCell>
        <mxCell id="lHpQ4Gt-UM4nO55dHslV-17" value="FINISH" style="ellipse;whiteSpace=wrap;html=1;" vertex="1" parent="WIyWlLk6GJQsqaUBKTNV-1">
          <mxGeometry x="330" y="1010" width="120" height="80" as="geometry" />
        </mxCell>
        <mxCell id="lHpQ4Gt-UM4nO55dHslV-20" style="edgeStyle=orthogonalEdgeStyle;rounded=0;orthogonalLoop=1;jettySize=auto;html=1;exitX=0.5;exitY=1;exitDx=0;exitDy=0;entryX=0.5;entryY=0;entryDx=0;entryDy=0;" edge="1" parent="WIyWlLk6GJQsqaUBKTNV-1" source="lHpQ4Gt-UM4nO55dHslV-18" target="lHpQ4Gt-UM4nO55dHslV-17">
          <mxGeometry relative="1" as="geometry" />
        </mxCell>
        <mxCell id="lHpQ4Gt-UM4nO55dHslV-18" value="ALARM DI MATIKAN&amp;nbsp;" style="rounded=1;whiteSpace=wrap;html=1;" vertex="1" parent="WIyWlLk6GJQsqaUBKTNV-1">
          <mxGeometry x="330" y="920" width="120" height="60" as="geometry" />
        </mxCell>
      </root>
    </mxGraphModel>
  </diagram>
</mxfile>
